<svg width="60" height="60" viewBox="0 0 60 60" fill="none" xmlns="http://www.w3.org/2000/svg">
<g clip-path="url(#clip0_2315_56)">
<path fill-rule="evenodd" clip-rule="evenodd" d="M48.862 32.832C48.6471 27.9004 47.3971 26.3184 45.8786 26.2988C46.8025 30.5051 46.7858 34.8635 45.8298 39.0625C47.5387 39.1797 48.652 37.1387 48.862 32.8272V32.832ZM57.7829 9.64844C58.2217 9.64748 58.651 9.77679 59.0163 10.02C59.3816 10.2632 59.6665 10.6094 59.8349 11.0146C60.0033 11.4199 60.0476 11.866 59.9622 12.2965C59.8768 12.727 59.6656 13.1224 59.3553 13.4327C59.045 13.7431 58.6495 13.9543 58.219 14.0397C57.7886 14.1251 57.3424 14.0807 56.9372 13.9124C56.5319 13.744 56.1857 13.4591 55.9425 13.0938C55.6993 12.7285 55.57 12.2992 55.571 11.8604C55.571 11.2737 55.804 10.7111 56.2188 10.2963C56.6336 9.88148 57.1962 9.64844 57.7829 9.64844ZM53.2223 3.37366e-06C53.921 -0.000962263 54.6042 0.205387 55.1855 0.592927C55.7668 0.980467 56.22 1.53177 56.4878 2.17704C56.7556 2.82231 56.826 3.53254 56.6899 4.2178C56.5538 4.90306 56.2175 5.53254 55.7235 6.02655C55.2295 6.52057 54.6 6.85689 53.9147 6.99295C53.2295 7.12901 52.5193 7.05869 51.874 6.79089C51.2287 6.52308 50.6774 6.06984 50.2899 5.48854C49.9023 4.90725 49.696 4.22403 49.6969 3.52539C49.6969 2.5904 50.0684 1.69371 50.7295 1.03257C51.3906 0.371427 52.2873 3.37366e-06 53.2223 3.37366e-06ZM30.82 44.1016C31.8139 44.1016 32.7855 44.3964 33.6119 44.9487C34.4383 45.501 35.0823 46.286 35.4624 47.2043C35.8425 48.1227 35.9418 49.1332 35.7475 50.108C35.5532 51.0828 35.0742 51.978 34.3711 52.6805C33.6679 53.383 32.7722 53.8611 31.7972 54.0544C30.8222 54.2478 29.8118 54.1476 28.8938 53.7665C27.9758 53.3855 27.1915 52.7407 26.64 51.9138C26.0885 51.0869 25.7946 50.115 25.7956 49.1211C25.7969 47.7902 26.3261 46.5142 27.2672 45.5732C28.2083 44.6321 29.4842 44.1029 30.8151 44.1016H30.82ZM4.71647 34.126C5.1077 33.6538 5.6343 33.313 6.22526 33.1494V32.9834C6.24592 31.2606 6.40924 29.5425 6.71354 27.8467C6.87221 26.1802 7.55613 24.6071 8.66667 23.3545L8.90104 23.1104L8.2028 22.8857C7.22624 -7.72949 55.1999 -3.7207 54.487 23.0811C54.487 23.3984 54.487 23.7061 54.4333 23.999C55.1887 25.1618 55.5907 26.5187 55.5905 27.9053C55.9218 29.578 56.0951 31.2782 56.1081 32.9834C56.1158 34.6248 55.9439 36.2622 55.5954 37.8662C55.5466 40.3076 54.7604 42.0264 53.3542 43.1934C52.674 43.7552 51.8764 44.1574 51.0202 44.3701C50.1314 47.1808 48.6607 49.7729 46.7038 51.9775C44.7142 54.2161 42.2773 56.0126 39.5505 57.251C36.9263 58.4581 34.0746 59.0907 31.1862 59.1064C28.3908 59.1225 25.6326 58.466 23.1442 57.1924C21.0547 58.2996 18.758 58.9612 16.3997 59.1352C14.0413 59.3091 11.6724 58.9918 9.44303 58.2031C7.1127 57.3885 5.01836 56.0136 3.3444 54.1992C1.62654 52.3185 0.510952 49.9665 0.141274 47.4463C-0.449546 43.457 0.771157 38.8574 4.71647 34.126ZM9.05729 33.8525C9.08894 33.9128 9.10548 33.9798 9.10548 34.0479C9.10548 34.1159 9.08894 34.1829 9.05729 34.2432C9.10352 35.3016 9.21112 36.3564 9.37956 37.4023C9.41547 37.4582 9.43963 37.5208 9.45054 37.5862C9.46145 37.6517 9.4589 37.7187 9.44303 37.7832L9.49186 38.0371C9.84342 40.5811 11.2497 41.6992 13.3444 41.8897H21.2057C26.2594 41.6064 26.8893 38.8281 29.0768 37.6563C29.8001 37.2897 30.6038 37.1106 31.4142 37.1354C32.2247 37.1601 33.0159 37.3879 33.7155 37.7979C35.6979 39.0674 36.3522 41.7529 40.9518 41.7529H48.0417C51.0251 42.0703 52.7878 40.9033 52.7536 37.5537C53.4352 34.4708 53.4352 31.2763 52.7536 28.1934C52.7536 25.1953 50.9616 24.0186 48.2467 23.7988H13.2907C11.2253 24.375 9.81901 25.6836 9.50651 28.1934C9.16163 30.0592 9.01108 31.9557 9.05729 33.8525ZM7.38249 40.8398C6.22038 42.9688 5.85905 44.9219 6.11295 46.5723C6.31207 47.9045 6.90365 49.1471 7.81217 50.1416C8.81563 51.227 10.0696 52.0501 11.4645 52.5391C13.4269 53.2312 15.5463 53.3481 17.5729 52.876C15.4049 50.7813 13.7839 48.8965 12.6462 46.7773C12.24 46.0259 11.897 45.2419 11.6208 44.4336C10.688 44.1952 9.82176 43.7478 9.08749 43.1251C8.35321 42.5025 7.77017 41.721 7.38249 40.8398ZM30.82 41.3574C32.3569 41.3565 33.8595 41.8114 35.1378 42.6646C36.4161 43.5179 37.4126 44.7311 38.0011 46.1508C38.5897 47.5705 38.744 49.1329 38.4444 50.6404C38.1448 52.1478 37.4048 53.5324 36.3181 54.6192C35.2313 55.7059 33.8466 56.4459 32.3392 56.7455C30.8318 57.0451 29.2694 56.8908 27.8497 56.3023C26.43 55.7137 25.2168 54.7172 24.3635 53.4389C23.5103 52.1606 23.0553 50.658 23.0563 49.1211C23.0563 47.062 23.8743 45.0873 25.3302 43.6314C26.7862 42.1754 28.7609 41.3574 30.82 41.3574Z" fill="#FFB21B"/>
</g>
<defs>
<clipPath id="clip0_2315_56">
<rect width="60" height="59.1846" fill="white"/>
</clipPath>
</defs>
</svg>
