<svg width="40" height="41" viewBox="0 0 40 41" fill="none" xmlns="http://www.w3.org/2000/svg">
<g clip-path="url(#clip0_2312_10)">
<path d="M40 20.3542C40 30.3359 32.6767 38.6109 23.1167 40.1125V26.1742H27.765L28.65 20.4075H23.1167V16.6659C23.1167 15.0875 23.89 13.5509 26.3667 13.5509H28.8817V8.64085C28.8817 8.64085 26.5983 8.25085 24.4167 8.25085C19.86 8.25085 16.8833 11.0125 16.8833 16.0109V20.4059H11.8183V26.1725H16.8833V40.1109C7.325 38.6075 0 30.3342 0 20.3542C0 9.30919 8.955 0.354187 20 0.354187C31.045 0.354187 40 9.30752 40 20.3542Z" fill="white"/>
</g>
<defs>
<clipPath id="clip0_2312_10">
<rect width="40" height="40" fill="white" transform="translate(0 0.232544)"/>
</clipPath>
</defs>
</svg>
