<svg width="40" height="41" viewBox="0 0 40 41" fill="none" xmlns="http://www.w3.org/2000/svg">
<g clip-path="url(#clip0_2312_15)">
<path d="M20 3.83588C25.34 3.83588 25.9733 3.85588 28.0817 3.95254C30.2617 4.05254 32.5067 4.54921 34.095 6.13754C35.6983 7.74088 36.18 9.96421 36.28 12.1509C36.3767 14.2592 36.3967 14.8925 36.3967 20.2325C36.3967 25.5725 36.3767 26.2059 36.28 28.3142C36.1817 30.4825 35.6733 32.7492 34.095 34.3275C32.4917 35.9309 30.27 36.4125 28.0817 36.5125C25.9733 36.6092 25.34 36.6292 20 36.6292C14.66 36.6292 14.0267 36.6092 11.9183 36.5125C9.76667 36.4142 7.47 35.8942 5.905 34.3275C4.31 32.7325 3.82 30.4875 3.72 28.3142C3.62333 26.2059 3.60333 25.5725 3.60333 20.2325C3.60333 14.8925 3.62333 14.2592 3.72 12.1509C3.81833 9.99088 4.33167 7.71088 5.905 6.13754C7.505 4.53754 9.73667 4.05254 11.9183 3.95254C14.0267 3.85588 14.66 3.83588 20 3.83588ZM20 0.232544C14.5683 0.232544 13.8867 0.255877 11.7533 0.352544C8.66167 0.494211 5.59167 1.35421 3.35667 3.58921C1.11333 5.83254 0.261667 8.89588 0.12 11.9859C0.0233333 14.1192 0 14.8009 0 20.2325C0 25.6642 0.0233333 26.3459 0.12 28.4792C0.261667 31.5675 1.125 34.6459 3.35667 36.8759C5.59833 39.1175 8.66667 39.9709 11.7533 40.1125C13.8867 40.2092 14.5683 40.2325 20 40.2325C25.4317 40.2325 26.1133 40.2092 28.2467 40.1125C31.3367 39.9709 34.41 39.1092 36.6433 36.8759C38.8883 34.6309 39.7383 31.5692 39.88 28.4792C39.9767 26.3459 40 25.6642 40 20.2325C40 14.8009 39.9767 14.1192 39.88 11.9859C39.7383 8.89421 38.8767 5.82254 36.6433 3.58921C34.405 1.35088 31.3283 0.492544 28.2467 0.352544C26.1133 0.255877 25.4317 0.232544 20 0.232544Z" fill="white"/>
<path d="M20.0005 9.96252C14.3288 9.96252 9.73047 14.5609 9.73047 20.2325C9.73047 25.9042 14.3288 30.5025 20.0005 30.5025C25.6721 30.5025 30.2705 25.9042 30.2705 20.2325C30.2705 14.5609 25.6721 9.96252 20.0005 9.96252ZM20.0005 26.8992C16.3188 26.8992 13.3338 23.9142 13.3338 20.2325C13.3338 16.5509 16.3188 13.5659 20.0005 13.5659C23.6821 13.5659 26.6671 16.5509 26.6671 20.2325C26.6671 23.9142 23.6821 26.8992 20.0005 26.8992Z" fill="white"/>
<path d="M30.6764 11.9559C32.0019 11.9559 33.0764 10.8814 33.0764 9.55588C33.0764 8.2304 32.0019 7.15588 30.6764 7.15588C29.3509 7.15588 28.2764 8.2304 28.2764 9.55588C28.2764 10.8814 29.3509 11.9559 30.6764 11.9559Z" fill="white"/>
</g>
<defs>
<clipPath id="clip0_2312_15">
<rect width="40" height="40" fill="white" transform="translate(0 0.232544)"/>
</clipPath>
</defs>
</svg>
