<svg width="40" height="41" viewBox="0 0 40 41" fill="none" xmlns="http://www.w3.org/2000/svg">
<g clip-path="url(#clip0_2312_13)">
<path d="M20 0.348816C8.95349 0.348816 0 9.3023 0 20.3488C0 31.3953 8.95349 40.3488 20 40.3488C31.0465 40.3488 40 31.3953 40 20.3488C40 9.3023 31.0465 0.348816 20 0.348816ZM13.907 30.8372H9.03488V15.1744H13.907V30.8372ZM11.4651 13.0232C9.90698 13.0232 8.63954 11.7558 8.63954 10.1977C8.63954 8.63951 9.90698 7.37207 11.4651 7.37207C13.0233 7.37207 14.2907 8.63951 14.2907 10.1977C14.2907 11.7558 13.0233 13.0232 11.4651 13.0232ZM32.1279 30.8372H27.2674V23.2209C27.2674 21.407 27.2326 19.0697 24.7326 19.0697C22.1977 19.0697 21.814 21.0465 21.814 23.093V30.8488H16.9535V15.1744H21.6279V17.3139H21.686C22.6395 15.686 24.407 14.7093 26.2907 14.779C31.2209 14.779 32.1279 18.0232 32.1279 22.2442V30.8372Z" fill="white"/>
</g>
<defs>
<clipPath id="clip0_2312_13">
<rect width="40" height="40.2326" fill="white"/>
</clipPath>
</defs>
</svg>
