<svg width="70" height="72" viewBox="0 0 70 72" fill="none" xmlns="http://www.w3.org/2000/svg">
<path d="M48.2491 36.3261H42.3058C41.3969 36.3261 40.5122 36.6491 39.8149 37.2359L38.5035 38.3394C38.1353 38.6492 37.6659 38.8198 37.1817 38.8198H34.9744C34.4903 38.8198 34.0209 38.6492 33.6528 38.3394L32.3412 37.2359C31.6439 36.6491 30.7594 36.3261 29.8503 36.3261H23.9072C21.7664 36.3261 20.0249 38.0783 20.0249 40.2321V45.5007C20.0249 47.6545 21.7663 49.407 23.9072 49.407H28.8859C29.918 49.407 30.8895 49.0041 31.6218 48.2724L33.6765 46.219C34.054 45.8417 34.5786 45.624 35.1161 45.6213L36.0732 45.6162L37.04 45.6213C37.5774 45.624 38.1019 45.8417 38.4792 46.219L40.5339 48.2723C41.2661 49.0041 42.2379 49.407 43.27 49.407H48.2487C50.3895 49.407 52.131 47.6545 52.131 45.5007V40.2321C52.1314 38.0783 50.3899 36.3261 48.2491 36.3261ZM23.2643 43.3196C22.931 42.9232 22.9732 42.3241 23.3588 41.9812L26.3749 39.2994C26.7604 38.9567 27.343 39 27.6766 39.3966C28.01 39.7928 27.9677 40.3921 27.5823 40.7349L24.566 43.4167C24.3916 43.5719 24.1766 43.648 23.9627 43.648C23.7041 43.6478 23.447 43.5366 23.2643 43.3196ZM30.3152 42.3204L25.802 46.333C25.6275 46.4882 25.4126 46.5642 25.1986 46.5642C24.9399 46.5642 24.6828 46.4531 24.5003 46.236C24.1669 45.8396 24.2092 45.2405 24.5946 44.8976L29.1078 40.8851C29.4929 40.5424 30.0759 40.5855 30.4095 40.9821C30.7428 41.3785 30.7007 41.9776 30.3152 42.3204ZM41.938 43.3196C41.6047 42.9232 41.6468 42.3241 42.0324 41.9812L45.0488 39.2994C45.4341 38.9567 46.0168 39 46.3505 39.3966C46.6838 39.7928 46.6416 40.3921 46.2562 40.7349L43.2397 43.4167C43.0654 43.5719 42.8504 43.648 42.6365 43.648C42.3779 43.6478 42.1206 43.5366 41.938 43.3196ZM48.9888 42.3204L44.4755 46.333C44.3012 46.4882 44.0863 46.5642 43.8723 46.5642C43.6137 46.5642 43.3565 46.4531 43.174 46.236C42.8407 45.8396 42.8829 45.2405 43.2683 44.8976L47.7815 40.8851C48.1667 40.5424 48.7494 40.5855 49.0832 40.9821C49.4166 41.3785 49.3745 41.9776 48.9888 42.3204Z" fill="black"/>
<path d="M14.9451 31.2964C13.0156 31.2964 11.4458 29.6823 11.4458 27.6985C11.4458 25.7146 13.0155 24.1007 14.9451 24.1007C16.8745 24.1007 18.4442 25.7146 18.4442 27.6985C18.4442 29.6823 16.8746 31.2964 14.9451 31.2964ZM14.9451 25.9984C14.0332 25.9984 13.2915 26.761 13.2915 27.6985C13.2915 28.6359 14.0332 29.3987 14.9451 29.3987C15.8568 29.3987 16.5985 28.6359 16.5985 27.6985C16.5985 26.761 15.8568 25.9984 14.9451 25.9984Z" fill="black"/>
<path d="M8.01586 25.2748C5.40057 25.2748 3.27295 23.0872 3.27295 20.3983C3.27295 17.7093 5.4007 15.5217 8.01586 15.5217C10.631 15.5217 12.7588 17.7094 12.7588 20.3983C12.7588 23.0872 10.6312 25.2748 8.01586 25.2748ZM8.01586 17.4193C6.4183 17.4193 5.11865 18.7557 5.11865 20.3981C5.11865 22.0408 6.41844 23.3769 8.01586 23.3769C9.61328 23.3769 10.9131 22.0407 10.9131 20.3981C10.9131 18.7557 9.61328 17.4193 8.01586 17.4193Z" fill="black"/>
<path d="M17.6996 21.2919C15.8299 21.2919 14.3091 19.7282 14.3091 17.806C14.3091 15.8837 15.8299 14.32 17.6996 14.32C19.5691 14.32 21.0899 15.8837 21.0899 17.806C21.0899 19.7282 19.5691 21.2919 17.6996 21.2919ZM17.6996 16.2177C16.8478 16.2177 16.1548 16.9301 16.1548 17.806C16.1548 18.6819 16.8477 19.3942 17.6996 19.3942C18.5515 19.3942 19.2442 18.6819 19.2442 17.806C19.2442 16.9301 18.5513 16.2177 17.6996 16.2177Z" fill="black"/>
<path d="M11.7469 14.4894C8.2499 14.4894 5.40479 11.5643 5.40479 7.96864C5.40479 4.373 8.2499 1.44788 11.7469 1.44788C15.244 1.44788 18.0891 4.373 18.0891 7.96864C18.0891 11.5643 15.244 14.4894 11.7469 14.4894ZM11.7469 3.34571C9.26764 3.34571 7.25049 5.41968 7.25049 7.96878C7.25049 10.5179 9.26764 12.5918 11.7469 12.5918C14.2263 12.5918 16.2434 10.5179 16.2434 7.96878C16.2434 5.41968 14.2263 3.34571 11.7469 3.34571Z" fill="black"/>
<path d="M11.7469 14.4894C8.2499 14.4894 5.40479 11.5643 5.40479 7.96864C5.40479 4.373 8.2499 1.44788 11.7469 1.44788C15.244 1.44788 18.0891 4.373 18.0891 7.96864C18.0891 11.5643 15.244 14.4894 11.7469 14.4894ZM11.7469 3.34571C9.26764 3.34571 7.25049 5.41968 7.25049 7.96878C7.25049 10.5179 9.26764 12.5918 11.7469 12.5918C14.2263 12.5918 16.2434 10.5179 16.2434 7.96878C16.2434 5.41968 14.2263 3.34571 11.7469 3.34571Z" fill="black"/>
<path d="M65.8032 48.318C65.2935 48.318 64.8805 47.8933 64.8803 47.3693L64.8784 40.9063C64.8783 40.3821 65.2914 39.9573 65.8009 39.9572C65.8011 39.9572 65.8013 39.9572 65.8013 39.9572C66.3108 39.9572 66.724 40.3817 66.7241 40.9056L66.726 47.3688C66.7262 47.8927 66.313 48.3177 65.8032 48.318Z" fill="black"/>
<path d="M65.8045 52.5026C65.2948 52.5026 64.8818 52.0779 64.8816 51.5539L64.8813 50.5287C64.8812 50.0045 65.2944 49.5799 65.8041 49.5797C66.3138 49.5797 66.7269 50.0044 66.7271 50.5284L66.7273 51.5536C66.7275 52.0778 66.3143 52.5025 65.8045 52.5026Z" fill="black"/>
<path d="M65.8013 38.3665C65.2914 38.3665 64.8784 37.9418 64.8784 37.4176V26.9173C64.8784 26.3933 65.2914 25.9685 65.8013 25.9685C66.3111 25.9685 66.7241 26.3933 66.7241 26.9173V37.4176C66.7241 37.9417 66.3111 38.3665 65.8013 38.3665Z" fill="black"/>
<path d="M36.0783 51.212C34.4182 51.212 33.0679 52.6004 33.0679 54.3072C33.0679 56.0142 34.4182 57.4026 36.0783 57.4026C37.7385 57.4026 39.0888 56.0142 39.0888 54.3072C39.0887 52.6004 37.7383 51.212 36.0783 51.212ZM36.0783 55.5048C35.4361 55.5048 34.9136 54.9675 34.9136 54.3071C34.9136 53.6467 35.436 53.1096 36.0783 53.1096C36.7206 53.1096 37.2431 53.6467 37.2431 54.3071C37.2431 54.9675 36.7205 55.5048 36.0783 55.5048Z" fill="black"/>
<path d="M51.0211 9.81882C49.1263 9.81882 47.5847 11.4039 47.5847 13.3522C47.5847 15.3002 49.1262 16.8854 51.0211 16.8854C53.8465 16.8854 56.1453 19.2488 56.1453 22.1538V29.4899V38.0931V38.9546H55.3223V38.8095C55.3223 36.1002 53.7094 33.8435 51.5945 33.3916C51.4028 32.6858 51.1422 32.0091 50.8216 31.3693C50.8197 31.3657 50.8179 31.3619 50.816 31.3582C50.7529 31.2327 50.6877 31.1087 50.6198 30.9861C50.6181 30.983 50.6164 30.9798 50.6145 30.9767C50.5047 30.7788 50.3877 30.5859 50.2664 30.3959C50.0849 30.1115 49.8921 29.8353 49.6858 29.5703C49.6821 29.5652 49.6781 29.5602 49.6742 29.5551C49.5973 29.457 49.5184 29.3606 49.4385 29.2651C49.4203 29.2436 49.4022 29.222 49.384 29.2006C49.3075 29.1106 49.2297 29.0221 49.1502 28.9348C49.1293 28.912 49.108 28.8895 49.0871 28.8668C49.0059 28.7792 48.924 28.6923 48.8399 28.6075C48.8321 28.5997 48.8243 28.5924 48.8165 28.5846C48.5505 28.3178 48.2699 28.0662 47.9776 27.8292C47.9385 27.7976 47.9 27.7655 47.8604 27.7345C47.7858 27.6757 47.7099 27.6186 47.6338 27.562C47.5847 27.5253 47.5353 27.489 47.4856 27.4536C47.4124 27.4012 47.3389 27.3494 47.2644 27.2988C47.2086 27.2609 47.1521 27.2242 47.0956 27.1874C47.0236 27.1406 46.9517 27.0935 46.8787 27.0483C46.8129 27.0079 46.7456 26.9692 46.6789 26.9301C46.5745 26.869 46.4692 26.8095 46.3627 26.7517C46.2734 26.7037 46.184 26.6553 46.0932 26.6098C46.0305 26.5781 45.9663 26.5488 45.9029 26.5185C45.8237 26.4807 45.7446 26.4432 45.6643 26.4075C45.5991 26.3784 45.5335 26.3507 45.4677 26.323C45.3857 26.2886 45.3035 26.255 45.2204 26.2225C45.1563 26.1975 45.0922 26.1727 45.0274 26.149C44.937 26.1158 44.8457 26.0845 44.7539 26.0537C44.6957 26.034 44.6377 26.0137 44.5791 25.9953C44.4519 25.9553 44.3238 25.9179 44.1946 25.8827C44.1703 25.8761 44.1465 25.8684 44.1223 25.8621C43.97 25.8217 43.8162 25.7856 43.6613 25.7524C43.609 25.7412 43.556 25.7318 43.5035 25.7212C43.3973 25.7001 43.2903 25.6799 43.1828 25.6622C43.1227 25.6523 43.0619 25.6433 43.0015 25.6345C42.8984 25.6194 42.7947 25.6058 42.6907 25.5939C42.6303 25.5868 42.5696 25.5798 42.5089 25.5739C42.3976 25.5632 42.2856 25.5548 42.1734 25.5476C42.1204 25.5442 42.0678 25.5397 42.0146 25.5372C41.8497 25.5292 41.684 25.5243 41.5171 25.5243H30.5037C30.3387 25.5243 30.1746 25.5292 30.0114 25.5371C29.9585 25.5397 29.906 25.5441 29.8535 25.5475C29.7426 25.5546 29.6323 25.5627 29.5226 25.5735C29.4621 25.5794 29.4016 25.5864 29.3415 25.5934C29.2392 25.6052 29.1374 25.6186 29.0359 25.6334C28.9754 25.6422 28.9146 25.6514 28.8545 25.6613C28.7504 25.6786 28.6471 25.698 28.5443 25.7184C28.4897 25.7292 28.4348 25.7392 28.3805 25.7509C28.2512 25.7789 28.1226 25.8098 27.9951 25.8425C27.9692 25.8493 27.9428 25.8548 27.9171 25.8616C27.7663 25.9017 27.6172 25.9459 27.4691 25.9928C27.4173 26.0092 27.3663 26.0275 27.3148 26.0447C27.2174 26.0771 27.1205 26.1105 27.0245 26.1459C26.9641 26.1682 26.9041 26.1917 26.8442 26.2152C26.758 26.2489 26.6725 26.2835 26.5876 26.3195C26.5258 26.3456 26.4641 26.3721 26.4029 26.3995C26.3196 26.4366 26.2373 26.4754 26.1551 26.5146C26.0956 26.5431 26.0359 26.5711 25.977 26.6008C25.8888 26.6452 25.8021 26.6919 25.7154 26.7387C25.6651 26.7659 25.6138 26.7918 25.5639 26.8199C25.4361 26.8917 25.3103 26.9665 25.1858 27.0437C25.1256 27.0812 25.0666 27.1207 25.0071 27.1592C24.9378 27.2041 24.8686 27.2489 24.8005 27.2956C24.7361 27.3396 24.6727 27.3851 24.6094 27.4307C24.5485 27.4744 24.4877 27.5185 24.4278 27.5635C24.3629 27.6123 24.2986 27.6615 24.2348 27.712C24.179 27.756 24.1239 27.8008 24.0689 27.8459C24.004 27.8994 23.9392 27.9526 23.8755 28.0074C23.8262 28.0499 23.7781 28.0939 23.7297 28.1373C23.4861 28.3558 23.2523 28.5855 23.0295 28.826C22.9947 28.8635 22.9595 28.9004 22.9253 28.9384C22.8598 29.0111 22.7963 29.0853 22.7328 29.1597C22.6979 29.2007 22.663 29.2418 22.6286 29.2834C22.5658 29.3596 22.5039 29.4369 22.4431 29.5149C22.412 29.5547 22.3815 29.595 22.3509 29.6353C22.2887 29.7176 22.227 29.8003 22.1669 29.8843C22.1446 29.9158 22.1231 29.948 22.101 29.9798C21.8839 30.292 21.6822 30.6161 21.4986 30.9521C21.4903 30.9671 21.4815 30.982 21.4732 30.9971C21.4185 31.0984 21.3661 31.2013 21.3145 31.3047C21.2975 31.3384 21.2804 31.3721 21.2637 31.4063C21.2148 31.5071 21.1675 31.6087 21.1215 31.7112C21.1055 31.7469 21.0898 31.7827 21.0742 31.8187C21.0283 31.9239 20.9836 32.0296 20.9409 32.1366C20.9303 32.1637 20.9202 32.1914 20.9096 32.2186C20.7609 32.6018 20.6322 32.9952 20.5271 33.3987C20.437 33.7444 20.3634 34.0968 20.3074 34.4553C20.3633 34.0967 20.437 33.7444 20.5271 33.3987C18.4298 33.8684 16.835 36.1148 16.835 38.809V38.9541H15.6726C14.4375 38.9541 13.4326 39.9871 13.4326 41.2569V44.473C13.4326 45.7427 14.4375 46.7761 15.6726 46.7761H16.835V46.9211C16.835 49.5522 18.3468 51.712 20.4637 52.2826C20.3725 51.945 20.3016 51.5989 20.2535 51.2452C20.3022 51.5986 20.3725 51.9451 20.4637 52.2826C20.6072 52.8141 20.8024 53.3238 21.0429 53.8058C21.0458 53.8116 21.0485 53.8172 21.0514 53.8228C21.0983 53.9162 21.1466 54.0084 21.1967 54.0998C21.1984 54.1024 21.1997 54.105 21.2012 54.1078C21.4054 54.4775 21.6371 54.8289 21.8932 55.1595C21.8999 55.168 21.9063 55.1767 21.9129 55.1851C21.9693 55.2575 22.0274 55.3286 22.0862 55.3989C22.1011 55.4169 22.1163 55.4348 22.1313 55.4525C22.1884 55.5194 22.2462 55.5854 22.3053 55.6504C22.3215 55.6682 22.3381 55.686 22.3546 55.7037C22.4154 55.7696 22.477 55.8348 22.5399 55.8985C22.5427 55.9015 22.546 55.9044 22.549 55.9075C22.6949 56.0547 22.8465 56.1961 23.0032 56.3313C23.0048 56.3327 23.0062 56.3343 23.0079 56.3355C23.0666 56.3861 23.1268 56.4349 23.1871 56.4838C23.2183 56.509 23.249 56.5344 23.2805 56.5592C23.336 56.6029 23.3924 56.6455 23.449 56.6877C23.4868 56.7159 23.5251 56.7437 23.5633 56.7713C23.618 56.8105 23.6731 56.8495 23.7288 56.8871C23.7713 56.9161 23.8144 56.9441 23.8573 56.972C23.9113 57.0072 23.9652 57.0425 24.0198 57.0763C24.0714 57.1081 24.124 57.1382 24.1762 57.1688C24.2547 57.2148 24.3339 57.2595 24.414 57.3027C24.4799 57.3382 24.5459 57.3739 24.6129 57.4075C24.6605 57.4314 24.7088 57.4536 24.7568 57.4765C24.8165 57.5049 24.8762 57.5333 24.9367 57.5603C24.9855 57.5821 25.035 57.6031 25.0843 57.6239C25.1463 57.65 25.2086 57.6753 25.2712 57.6998C25.3196 57.7187 25.368 57.7374 25.4167 57.7554C25.4852 57.7806 25.5544 57.8043 25.6237 57.8275C25.6673 57.8422 25.7108 57.8575 25.7547 57.8714C25.8537 57.9026 25.9533 57.9318 26.0538 57.959C26.0731 57.9642 26.0921 57.9698 26.1114 57.9749C26.2224 58.0041 26.3344 58.0305 26.447 58.0547C26.4868 58.0634 26.5271 58.0704 26.5672 58.0785C26.647 58.0942 26.7271 58.1094 26.8079 58.1227C26.8535 58.1302 26.8991 58.1369 26.9451 58.1435C27.0227 58.1549 27.1011 58.1652 27.1796 58.1743C27.2251 58.1795 27.2706 58.1847 27.3163 58.1892C27.4004 58.1974 27.485 58.2037 27.5697 58.209C27.6095 58.2117 27.6492 58.215 27.6891 58.2169C27.8135 58.223 27.9385 58.2266 28.0644 58.2266L29.3517 58.2255C30.6898 58.2173 31.3491 58.2428 31.7956 58.8673C32.8737 60.3751 34.2694 61.1395 35.9438 61.1395C37.9708 61.1395 39.3518 59.8811 40.3293 58.7834L40.4366 58.6627C40.8513 58.197 41.4237 58.1884 42.4863 58.2162C42.6926 58.2214 42.9032 58.2265 43.1169 58.2265H44.1591C44.2839 58.2265 44.4079 58.2228 44.5313 58.2169C44.5711 58.215 44.6106 58.2117 44.6503 58.209C44.7341 58.2037 44.818 58.1975 44.9012 58.1894C44.9467 58.185 44.9918 58.1798 45.0372 58.1746C45.115 58.1656 45.1927 58.1554 45.2698 58.144C45.315 58.1374 45.3603 58.1306 45.4053 58.1233C45.4854 58.1101 45.5648 58.0952 45.644 58.0793C45.6839 58.0714 45.7239 58.0643 45.7636 58.0557C45.8713 58.0325 45.9781 58.0071 46.0842 57.9794C46.102 57.9747 46.1197 57.9702 46.1377 57.9653C46.2431 57.9369 46.3475 57.9063 46.4512 57.8735C46.4939 57.86 46.536 57.8451 46.5786 57.8309C46.6483 57.8074 46.718 57.7835 46.7867 57.7582C46.8346 57.7407 46.8821 57.7221 46.9295 57.7036C46.9921 57.6791 47.0544 57.6538 47.1163 57.6277C47.165 57.6071 47.2138 57.5865 47.2619 57.565C47.3222 57.5381 47.3819 57.5097 47.4414 57.4813C47.4887 57.4588 47.5362 57.4368 47.583 57.4133C47.6484 57.3805 47.7125 57.3458 47.7768 57.311C47.8537 57.2695 47.93 57.2266 48.0055 57.1826C48.0616 57.1499 48.118 57.1174 48.1734 57.0834C48.2266 57.0506 48.2785 57.016 48.3306 56.9822C48.3748 56.9533 48.4189 56.9247 48.4627 56.895C48.517 56.858 48.5706 56.8202 48.6239 56.7818C48.6631 56.7537 48.7021 56.7252 48.7408 56.6964C48.7959 56.6552 48.8508 56.6136 48.9047 56.571C48.9381 56.5447 48.9709 56.5177 49.0038 56.491C49.0614 56.4442 49.1189 56.3975 49.175 56.349C49.1899 56.3361 49.2044 56.3226 49.2192 56.3097C49.4309 56.1245 49.6326 55.9277 49.8241 55.7208C49.8415 55.7021 49.8591 55.6836 49.8764 55.6647C49.9335 55.6018 49.9896 55.5374 50.0448 55.4724C50.0618 55.4525 50.0786 55.4325 50.0954 55.4124C50.1517 55.3448 50.2072 55.2763 50.2615 55.2069C50.272 55.1934 50.2823 55.1798 50.2927 55.1661C50.5433 54.8407 50.7702 54.4951 50.9701 54.1318C50.9719 54.1284 50.9738 54.1252 50.9756 54.122C51.0241 54.0334 51.0709 53.9436 51.1163 53.8532C51.1209 53.8439 51.1254 53.8347 51.1301 53.8255C51.1755 53.734 51.2195 53.6415 51.2616 53.5479C51.2621 53.5465 51.2627 53.5452 51.2634 53.544C51.44 53.1505 51.5867 52.74 51.7003 52.3157C51.7889 51.985 51.857 51.646 51.9043 51.3C51.8574 51.6461 51.7889 51.985 51.7003 52.3157C53.7629 51.812 55.3217 49.5851 55.3217 46.9211V46.7761H56.1448V48.6049V58.1884C56.1448 61.0935 53.846 63.4568 51.0206 63.4568H50.3001V62.6577H51.4447C52.6274 62.6577 53.5895 61.575 53.5895 60.2444C53.5895 59.7203 53.1765 59.2955 52.6667 59.2955C52.1568 59.2955 51.7438 59.7203 51.7438 60.2444C51.7438 60.5591 51.5668 60.76 51.4447 60.76H47.3096C47.1875 60.76 47.0103 60.5591 47.0103 60.2444C47.0103 59.7203 46.5973 59.2955 46.0875 59.2955C45.5778 59.2955 45.1646 59.7203 45.1646 60.2444C45.1646 61.575 46.1269 62.6577 47.3096 62.6577H48.4543V63.4568H46.4108C44.516 63.4568 42.9744 65.0419 42.9744 66.99C42.9744 68.9382 44.5159 70.5234 46.4108 70.5234H51.0206C57.6357 70.5234 63.0176 64.9899 63.0176 58.1884V48.6049V40.0017V38.0931V29.4899V22.1538C63.0182 15.3524 57.6361 9.81882 51.0211 9.81882ZM23.1599 31.7874C23.1622 31.7833 23.1645 31.7789 23.167 31.7749C23.2199 31.681 23.2746 31.5883 23.3309 31.4967C23.3324 31.4943 23.3338 31.4919 23.3354 31.4895C23.5599 31.1251 23.8098 30.7793 24.0829 30.4542C24.0968 30.4378 24.1105 30.4213 24.1246 30.4047C24.1853 30.3333 24.2471 30.2629 24.31 30.1936C24.324 30.1783 24.3383 30.1631 24.3523 30.1479C24.5481 29.9356 24.7542 29.7338 24.9695 29.5425C24.9936 29.5212 25.0171 29.4995 25.0411 29.4787C25.101 29.4266 25.162 29.376 25.2231 29.3257C25.2571 29.2979 25.2913 29.27 25.3256 29.2428C25.385 29.1955 25.4446 29.1489 25.5052 29.1035C25.543 29.0748 25.5819 29.0471 25.6203 29.0191C25.7132 28.9515 25.8074 28.886 25.903 28.8222C25.9597 28.7844 26.0162 28.746 26.0739 28.7095C26.1274 28.6757 26.182 28.6437 26.2363 28.6111C26.2892 28.5791 26.342 28.5474 26.3957 28.5166C26.4495 28.486 26.5037 28.4561 26.5582 28.4266C26.6156 28.3954 26.6736 28.3651 26.7318 28.3351C26.7837 28.3085 26.8357 28.2818 26.8883 28.2561C26.9583 28.2221 27.0293 28.1895 27.1005 28.1574C27.1425 28.1383 27.1839 28.1185 27.2262 28.1001C27.3358 28.0527 27.4467 28.0079 27.5585 27.9651C27.6015 27.9488 27.6452 27.9337 27.6884 27.918C27.7653 27.8902 27.8422 27.8629 27.9199 27.8374C27.9673 27.8218 28.0149 27.8067 28.0628 27.792C28.1407 27.7678 28.2193 27.7449 28.2983 27.7231C28.343 27.7107 28.3875 27.6979 28.4326 27.6862C28.5354 27.6597 28.639 27.6351 28.7431 27.6124C28.7637 27.608 28.7842 27.6026 28.805 27.5981C28.9291 27.572 29.0548 27.5492 29.181 27.5288C29.2203 27.5225 29.2601 27.5174 29.2996 27.5115C29.39 27.4983 29.4807 27.4862 29.5719 27.476C29.6172 27.4708 29.6626 27.4661 29.7083 27.4616C29.7995 27.4528 29.8912 27.4459 29.9832 27.4401C30.0243 27.4376 30.0651 27.4345 30.1061 27.4324C30.2381 27.4262 30.3706 27.4221 30.504 27.4221H41.5174C41.6525 27.4221 41.7869 27.4262 41.9204 27.4327C41.962 27.4346 42.0031 27.4376 42.0444 27.4402C42.1385 27.4462 42.2321 27.4533 42.3254 27.4623C42.3704 27.4665 42.4153 27.4712 42.4602 27.4762C42.5562 27.4869 42.6516 27.4997 42.7466 27.5138C42.783 27.5191 42.8195 27.5237 42.8557 27.5295C42.9841 27.5502 43.1118 27.5735 43.2383 27.5999C43.2651 27.6056 43.2916 27.6123 43.3184 27.6182C43.4187 27.6403 43.5188 27.6639 43.6178 27.6895C43.6615 27.7009 43.7053 27.7131 43.7489 27.725C43.8322 27.7481 43.915 27.7724 43.9975 27.7979C44.0418 27.8118 44.0862 27.8253 44.1304 27.8398C44.2209 27.8694 44.3105 27.901 44.3998 27.9336C44.4315 27.9453 44.4638 27.956 44.4954 27.9679C44.6115 28.0121 44.7262 28.0588 44.8398 28.108C44.8801 28.1252 44.9199 28.1441 44.96 28.1621C45.036 28.1962 45.1116 28.2312 45.1865 28.2675C45.2334 28.2904 45.2802 28.3138 45.3265 28.3374C45.3951 28.3724 45.4631 28.4084 45.5306 28.4452C45.5762 28.4699 45.6219 28.4944 45.6669 28.5198C45.7457 28.5645 45.8235 28.6111 45.9007 28.6581C45.9546 28.691 46.008 28.7245 46.0611 28.7585C46.1377 28.8076 46.2135 28.8571 46.2885 28.9084C46.3362 28.9411 46.3829 28.9751 46.43 29.0087C46.4848 29.0481 46.5395 29.0879 46.5932 29.1284C46.6424 29.1653 46.6914 29.2027 46.7398 29.2408C46.7905 29.2807 46.8405 29.3216 46.8907 29.3628C46.9384 29.402 46.9865 29.441 47.0336 29.4813C47.0913 29.5309 47.1475 29.5821 47.2039 29.6331C47.2802 29.7022 47.3551 29.7726 47.429 29.8444C47.4704 29.8846 47.5118 29.9244 47.5524 29.9655C47.6018 30.0154 47.6503 30.0664 47.6984 30.1174C47.7352 30.1562 47.7714 30.1954 47.8073 30.2349C47.8559 30.2883 47.9045 30.3423 47.9519 30.3969C47.9839 30.4338 48.0151 30.4715 48.0462 30.509C48.2156 30.7112 48.3763 30.9212 48.5276 31.1385C48.5524 31.1742 48.5774 31.2096 48.6017 31.2458C48.6462 31.3115 48.6895 31.378 48.7322 31.4452C48.7554 31.4818 48.7781 31.5185 48.8008 31.5553C48.8436 31.6247 48.8862 31.6945 48.9273 31.7652C48.9427 31.7919 48.9575 31.8194 48.9727 31.8463C49.0614 32.0036 49.1462 32.1637 49.2256 32.3267C49.2338 32.3433 49.2424 32.3596 49.2505 32.3764C49.2875 32.4535 49.3224 32.5316 49.3574 32.61C49.3735 32.6464 49.3896 32.6828 49.4055 32.7194C49.4386 32.7962 49.4707 32.8738 49.5016 32.9517C49.516 32.9884 49.5298 33.0251 49.5439 33.0619C49.575 33.1433 49.6058 33.2248 49.6346 33.3074C49.6346 33.3075 49.6346 33.3076 49.6346 33.3076H43.6187C41.8094 33.3076 40.4403 33.6747 39.4332 34.4297L39.3829 34.4676C37.1559 36.1383 36.0005 36.8721 34.0979 35.305C32.5567 34.0357 30.5301 33.3076 28.5381 33.3076H22.4842C22.6626 32.7757 22.8896 32.2673 23.1599 31.7874ZM22.0397 50.5798C22.0642 50.9174 22.1149 51.2475 22.1896 51.5682C22.1145 51.2476 22.0642 50.9175 22.0397 50.5798ZM49.7115 52.4555C49.4914 53.0223 49.192 53.5477 48.8265 54.017C48.8264 54.0171 48.8261 54.0173 48.8261 54.0175C48.6449 54.2502 48.4477 54.469 48.2362 54.6724C48.2334 54.675 48.231 54.6775 48.2282 54.6802C48.1242 54.7798 48.0166 54.8757 47.9058 54.9676C47.9001 54.9724 47.8942 54.9769 47.8885 54.9818C47.7824 55.0693 47.6731 55.1531 47.5612 55.233C47.5549 55.2375 47.5489 55.2422 47.5424 55.2468C47.4292 55.3271 47.3128 55.4031 47.1941 55.4755C47.1796 55.4844 47.1644 55.493 47.1498 55.5018C47.0386 55.5683 46.9253 55.6313 46.81 55.6903C46.8005 55.6952 46.7909 55.7006 46.7812 55.7055C46.6607 55.7662 46.5376 55.8223 46.4127 55.8749C46.3896 55.8844 46.3664 55.8937 46.3433 55.903C46.2268 55.9502 46.1089 55.9941 45.9892 56.034C45.9782 56.0377 45.9674 56.0419 45.9564 56.0454C45.8292 56.0867 45.7 56.1229 45.5695 56.1553C45.5403 56.1626 45.5111 56.1694 45.4818 56.1761C45.3574 56.2051 45.2319 56.2311 45.1046 56.252C45.096 56.2534 45.0875 56.2553 45.0789 56.2567C44.9455 56.2779 44.8103 56.2932 44.6742 56.3053C44.6415 56.3083 44.6087 56.3107 44.5758 56.313C44.4381 56.3227 44.2996 56.3295 44.1596 56.3295H43.1174C42.919 56.3295 42.7235 56.3246 42.5322 56.3198C41.3815 56.2903 40.077 56.2578 39.0759 57.3819L38.9674 57.5041C37.8675 58.7387 36.9917 59.2425 35.9443 59.2425C34.86 59.2425 34.0144 58.7661 33.2832 57.7438C32.3347 56.4171 30.9907 56.3274 29.6569 56.3274C29.5522 56.3274 29.4473 56.3279 29.343 56.3285L28.0649 56.3296C27.9258 56.3296 27.7884 56.323 27.6514 56.3136C27.6173 56.3111 27.5834 56.3085 27.5495 56.3055C27.4137 56.2936 27.2787 56.2789 27.1455 56.2579C27.1451 56.2578 27.1448 56.2577 27.1444 56.2577C27.0112 56.2367 26.88 56.2096 26.7498 56.1796C26.7174 56.1722 26.685 56.1646 26.6529 56.1566C26.5234 56.1245 26.3949 56.09 26.269 56.0495C26.2685 56.0493 26.268 56.0492 26.2675 56.049C26.1417 56.0087 26.0183 55.9627 25.896 55.9141C25.8655 55.9022 25.8355 55.8898 25.8053 55.8773C25.6836 55.8267 25.5633 55.7737 25.4458 55.7153C25.4454 55.7151 25.445 55.7148 25.4446 55.7146C25.3273 55.6563 25.213 55.593 25.0999 55.5273C25.0722 55.5112 25.0445 55.4949 25.0171 55.4782C24.9048 55.4106 24.7941 55.3406 24.6866 55.2658C24.6863 55.2655 24.6859 55.2652 24.6855 55.2649C24.5785 55.1904 24.4746 55.1112 24.3724 55.0298C24.3476 55.01 24.3229 54.9901 24.2983 54.9699C24.197 54.8865 24.0975 54.8014 24.0017 54.7117C24.0012 54.7113 24.001 54.711 24.0006 54.7107C23.9053 54.6213 23.8137 54.5279 23.724 54.4326C23.7024 54.4096 23.6808 54.3862 23.6592 54.3628C23.5706 54.2656 23.4838 54.1665 23.4011 54.0635C23.4008 54.0632 23.4006 54.0629 23.4004 54.0627C23.3182 53.9602 23.2403 53.8539 23.1644 53.7461C23.1462 53.7201 23.1282 53.6942 23.1104 53.6679C23.0356 53.5583 22.9633 53.447 22.8955 53.3321C22.8952 53.3317 22.8949 53.3313 22.8946 53.3307C22.8274 53.2167 22.7649 53.0995 22.7046 52.981C22.6903 52.9527 22.6759 52.9243 22.662 52.8956C22.6029 52.7752 22.5464 52.653 22.495 52.5283C22.495 52.5282 22.495 52.5281 22.4949 52.5279C22.7212 52.5505 22.9497 52.5739 23.1842 52.5982C24.359 52.7199 25.5928 52.8477 26.8146 52.8477C28.8396 52.8477 30.8319 52.4966 32.4688 51.1839C32.9182 50.8236 33.3108 50.361 33.6906 49.9137C34.5728 48.8741 35.1739 48.2429 36.0783 48.2429C36.8975 48.2429 37.2318 48.6146 37.9096 49.4546C38.956 50.7518 40.3892 52.5282 44.7871 52.5955C44.7999 52.5958 44.8027 52.5958 49.7115 52.4555ZM53.4767 38.9546V46.7766V46.9217C53.4767 48.342 52.8654 49.5695 51.9821 50.1564C51.6294 50.3907 51.2344 50.5261 50.8159 50.5261L50.7902 50.5265C50.7902 50.5265 50.5323 50.5338 50.1252 50.5455C48.6243 50.5883 45.0778 50.6895 44.7818 50.6981C41.2638 50.6398 40.2809 49.4216 39.3307 48.2436C38.6129 47.354 37.7996 46.3456 36.0787 46.3456C34.2699 46.3458 33.1777 47.6324 32.3002 48.6665C31.9628 49.0639 31.6441 49.4395 31.3344 49.688C29.2929 51.3248 26.2816 51.0128 23.3699 50.7103C22.9313 50.6649 22.4831 50.6191 22.0397 50.5796C21.8262 50.5608 21.6137 50.5429 21.4045 50.5283C20.9561 50.4968 20.5413 50.3422 20.1756 50.0953C19.275 49.4879 18.681 48.3067 18.681 46.9218V46.7768V38.9548V38.8097C18.681 37.3809 19.2994 36.1473 20.1916 35.5645C20.5402 35.3368 20.9295 35.2053 21.3418 35.2053H22.0712H28.5383C30.1185 35.2053 31.7242 35.7815 32.9442 36.7862C36.0326 39.3295 38.3906 37.561 40.4708 36.0007L40.5211 35.963C41.1916 35.4603 42.2339 35.2052 43.619 35.2052H50.0705H50.8162C51.2243 35.2052 51.6098 35.334 51.9559 35.5575C52.8536 36.1372 53.477 37.375 53.477 38.8095V38.9546H53.4767ZM48.4549 68.6261H46.4114C45.5342 68.6261 44.8206 67.8925 44.8206 66.9905C44.8206 66.0887 45.5342 65.3549 46.4114 65.3549H48.4549V68.6261ZM61.1725 58.1888C61.1725 63.9439 56.6185 68.6261 51.0211 68.6261H50.3006V65.3549H51.0211C54.8643 65.3549 57.991 62.1402 57.991 58.1888V48.6053H61.1725V58.1888ZM61.1725 46.7076H57.991V46.1729V40.0021H58.36H61.1723V46.7076H61.1725ZM61.1725 38.0931H57.991V31.3876H61.1725V38.0931ZM61.1725 29.4899H57.991V22.1538C57.991 18.2024 54.8643 14.9877 51.0211 14.9877C50.1439 14.9877 49.4304 14.2539 49.4304 13.3522C49.4304 12.4503 50.1439 11.7165 51.0211 11.7165C56.6185 11.7165 61.1725 16.3988 61.1725 22.1538V29.4899Z" fill="black"/>
</svg>
